<?xml version="1.0" encoding="UTF-8"?>
<svg width="16px" height="22px" viewBox="0 0 16 22" version="1.1" xmlns="http://www.w3.org/2000/svg" xmlns:xlink="http://www.w3.org/1999/xlink">
    <!-- Generator: Sketch 43.2 (39069) - http://www.bohemiancoding.com/sketch -->
    <title>Fill 126</title>
    <desc>Created with Sketch.</desc>
    <defs></defs>
    <g id="网盘-V2.0版" stroke="none" stroke-width="1" fill="none" fill-rule="evenodd">
        <g id="网盘-平铺-信息详情" transform="translate(-616.000000, -44.000000)" fill="#2C333F">
            <g id="Group-19" transform="translate(609.000000, 40.000000)">
                <path d="M15,7.32000004 L15,4.44000006 L11.16,8.28000004 L15,12.12 L15,9.24000003 C18.1776,9.24000003 20.76,11.8224 20.76,15 C20.76,15.9696 20.52,16.8912 20.088,17.688 L21.4896,19.0896 C22.2384,17.9088 22.68,16.5072 22.68,15 C22.68,10.7568 19.2432,7.32000004 15,7.32000004 L15,7.32000004 Z M15,20.76 C11.8224,20.76 9.24000003,18.1776 9.24000003,15 C9.24000003,14.0304 9.48000003,13.1088 9.91200003,12.312 L8.51040004,10.9104 C7.76160004,12.0912 7.32000004,13.4928 7.32000004,15 C7.32000004,19.2432 10.7568,22.68 15,22.68 L15,25.5599999 L18.84,21.72 L15,17.88 L15,20.76 L15,20.76 Z" id="Fill-126"></path>
            </g>
        </g>
    </g>
</svg>